<?xml version="1.0" standalone="no"?>
<!DOCTYPE svg PUBLIC "-//W3C//DTD SVG 20010904//EN"
 "http://www.w3.org/TR/2001/REC-SVG-20010904/DTD/svg10.dtd">
<svg version="1.0" xmlns="http://www.w3.org/2000/svg"
 width="696.000000pt" height="696.000000pt" viewBox="0 0 696.000000 696.000000"
 preserveAspectRatio="xMidYMid meet">
<metadata>
Created by potrace 1.11, written by Peter Selinger 2001-2013
</metadata>
<g transform="translate(0.000000,696.000000) scale(0.100000,-0.100000)"
fill="#000000" stroke="none">
<path d="M0 3480 l0 -2820 3480 0 3480 0 0 2820 0 2820 -3480 0 -3480 0 0
-2820z m3163 515 l67 -17 0 -129 0 -129 -40 20 c-57 29 -154 50 -236 50 -172
0 -303 -86 -360 -235 -15 -39 -19 -76 -19 -170 0 -116 1 -123 33 -187 64 -130
169 -191 327 -192 101 0 177 15 248 51 l47 23 0 -123 0 -123 -67 -22 c-137
-45 -334 -52 -464 -18 -102 27 -170 66 -245 140 -119 118 -164 239 -164 436 0
168 33 280 115 395 91 128 213 207 370 241 81 18 299 12 388 -11z m894 -10
c230 -44 366 -156 430 -354 20 -64 28 -272 14 -357 -39 -222 -191 -387 -421
-455 -67 -20 -103 -22 -357 -26 l-283 -5 0 606 0 606 269 0 c197 0 290 -4 348
-15z"/>
<path d="M3710 3395 l0 -388 128 5 c142 5 203 24 274 87 130 114 160 389 58
536 -40 58 -67 80 -135 112 -54 25 -73 28 -192 31 l-133 4 0 -387z"/>
</g>
</svg>
